<?xml version="1.0" encoding="UTF-8" standalone="no"?>
<!DOCTYPE svg PUBLIC "-//W3C//DTD SVG 1.1//EN" "http://www.w3.org/Graphics/SVG/1.1/DTD/svg11.dtd">
<svg width="100%" height="100%" viewBox="0 0 673 673" version="1.1" xmlns="http://www.w3.org/2000/svg" xmlns:xlink="http://www.w3.org/1999/xlink" xml:space="preserve" xmlns:serif="http://www.serif.com/" style="fill-rule:evenodd;clip-rule:evenodd;stroke-linejoin:round;stroke-miterlimit:2;">
    <g transform="matrix(2.66667,0,0,2.66667,0,0)">
        <g id="ArtBoard1" transform="matrix(1,0,0,1,0,-157.543)">
            <rect x="0" y="157.543" width="252.049" height="252.049" style="fill:none;"/>
            <g transform="matrix(1,0,0,1,10.2429,-136.417)">
                <g transform="matrix(0.51504,0,0,0.51504,21.504,512)">
                    <path d="M136.065,-208.244C136.04,-208.252 134.485,-210.704 132.73,-213.967C130.55,-218.021 129.51,-219.916 128.133,-222.343C127.367,-223.693 126.268,-225.681 125.692,-226.761C125.116,-227.84 124.257,-229.399 123.784,-230.225C123.311,-231.051 122.787,-232.015 122.621,-232.367C122.454,-232.719 120.913,-235.455 119.197,-238.447C117.48,-241.439 115.801,-244.391 115.467,-245.007C115.132,-245.623 114.541,-246.658 114.152,-247.308C113.763,-247.957 112.829,-249.541 112.077,-250.828C110.809,-252.997 108.162,-257.271 104.981,-262.287C100.854,-268.794 94.42,-276.789 91.26,-279.336C85.308,-284.132 82.594,-285.207 75.05,-285.755L69.935,-286.127L69.728,-287.405C69.613,-288.108 69.637,-288.991 69.78,-289.367C70.036,-290.041 70.191,-290.053 80.382,-290.222C92.948,-290.43 100.852,-291.223 108.324,-293.026C112.168,-293.954 114.584,-294.656 115.404,-295.083C115.91,-295.347 116.481,-295.564 116.673,-295.565C117.487,-295.57 121.054,-297.63 122.503,-298.933C126.523,-302.548 129.133,-310.923 130.578,-324.847C131.052,-329.412 130.92,-345.013 130.384,-347.887C130.121,-349.295 129.761,-351.311 129.585,-352.367C128.794,-357.093 125.839,-364.149 122.618,-369.007C120.976,-371.484 115.126,-377.571 113.124,-378.885C112.42,-379.347 111.268,-380.116 110.564,-380.593C109.054,-381.617 103.427,-384.527 102.959,-384.527C102.78,-384.527 102.042,-384.797 101.319,-385.128C99.452,-385.981 96.152,-386.918 91.524,-387.91C87.598,-388.752 87.254,-388.77 72.952,-388.923C60.415,-389.056 58.326,-389.012 57.992,-388.609C57.688,-388.243 57.621,-365.23 57.684,-283.369L57.764,-178.599L65.425,-178.513C74.18,-178.415 74.244,-178.397 74.244,-176.001C74.244,-174.965 74.09,-174.539 73.625,-174.29C73.209,-174.068 61.054,-173.959 36.505,-173.959L0.004,-173.959L0.004,-178.439L12.74,-178.439C22.219,-178.439 25.574,-178.537 25.86,-178.823C26.372,-179.335 26.424,-387.423 25.913,-388.383C25.594,-388.979 25.109,-389.002 12.793,-389.002L0.004,-389.002L0.004,-391.082C0.004,-392.848 0.088,-393.163 0.564,-393.165C22.414,-393.29 94.053,-393.06 96.69,-392.857C101.66,-392.474 106.008,-391.822 114.884,-390.128C123.823,-388.422 134.675,-384.414 140.694,-380.596C142.596,-379.389 147.432,-375.296 149.133,-373.452C151.526,-370.86 154.33,-367.272 155.586,-365.196C156.876,-363.065 159.044,-358.777 159.044,-358.359C159.044,-358.215 159.332,-357.533 159.684,-356.842C160.036,-356.152 160.324,-355.325 160.324,-355.004C160.324,-354.684 160.536,-353.913 160.796,-353.292C161.705,-351.118 162.617,-344.271 162.625,-339.562C162.646,-328.67 159.472,-319.379 152.788,-310.762C150.13,-307.336 144.687,-302.102 141.924,-300.317C138.772,-298.281 134.333,-296.005 132.053,-295.256C131.376,-295.034 130.44,-294.652 129.973,-294.409C129.506,-294.165 128.889,-293.965 128.603,-293.964C128.316,-293.963 127.536,-293.734 126.869,-293.455C125.476,-292.873 121.755,-291.849 118.724,-291.213C117.58,-290.973 115.852,-290.559 114.884,-290.293C113.916,-290.027 112.62,-289.805 112.004,-289.8C111.388,-289.795 109.876,-289.569 108.644,-289.298C107.412,-289.028 103.806,-288.619 100.63,-288.391C95.273,-288.005 93.444,-287.637 93.444,-286.942C93.444,-286.486 95.194,-286.015 97.673,-285.805C102.23,-285.42 109.866,-283.19 113.703,-281.124C119.395,-278.06 119.086,-278.261 123.679,-274.622C132.793,-267.4 141.839,-255.21 150.173,-238.922C152.895,-233.601 153.882,-232.955 153.833,-232.842L136.065,-208.244ZM208.245,-174.313C207.851,-174.542 207.686,-175.037 207.69,-175.983C207.699,-178.431 206.859,-178.28 220.842,-178.352C227.739,-178.388 233.505,-178.539 233.654,-178.688C233.803,-178.838 233.889,-226.184 233.845,-283.908L233.764,-388.848L221.032,-389.008C210.183,-389.145 208.255,-389.239 207.997,-389.648C207.546,-390.363 207.622,-392.398 208.116,-392.808C208.629,-393.234 350.686,-393.339 351.106,-392.913C351.249,-392.77 351.329,-379.848 351.284,-364.198L351.203,-335.743L350.306,-335.428C348.606,-334.83 348.348,-335.337 348.102,-339.758C347.623,-348.365 345.875,-356.402 342.939,-363.496C342.519,-364.512 342.075,-365.443 341.953,-365.565C341.831,-365.686 341.452,-366.367 341.11,-367.077C337.929,-373.685 331.125,-380.426 324.131,-383.9C323.005,-384.46 321.85,-385.035 321.565,-385.18C320.411,-385.763 316.117,-387.106 312.803,-387.92L309.283,-388.784L287.885,-388.922C275.693,-389.001 266.365,-388.938 266.204,-388.777C266.041,-388.614 265.918,-344.042 265.915,-283.707C265.91,-183.738 265.935,-178.907 266.476,-178.607C266.848,-178.398 274.842,-178.345 289.603,-178.454C311.344,-178.615 312.302,-178.648 316.003,-179.348C318.115,-179.748 320.779,-180.345 321.923,-180.675C323.067,-181.006 324.481,-181.373 325.065,-181.492C325.649,-181.61 326.513,-181.909 326.985,-182.155C327.457,-182.401 328.05,-182.604 328.302,-182.605C329.352,-182.61 336.463,-186.191 339.845,-188.419C344.563,-191.527 351.076,-198.201 353.848,-202.767C354.893,-204.488 357.764,-210.206 357.764,-210.566C357.764,-210.742 358.055,-211.486 358.41,-212.22C359.187,-213.825 359.845,-216.044 360.666,-219.833C361.003,-221.387 361.364,-222.798 361.469,-222.968C361.751,-223.424 362.544,-231.995 362.555,-234.708C362.567,-237.732 362.865,-238.287 364.477,-238.287C365.164,-238.287 365.808,-238.154 365.909,-237.992C366.009,-237.83 366.093,-223.557 366.095,-206.274C366.098,-183.105 366.004,-174.735 365.733,-174.409C365.422,-174.035 353.317,-173.968 287.085,-173.977C234.508,-173.984 208.62,-174.093 208.244,-174.313L208.245,-174.313ZM312.335,-250.106C312.153,-250.447 311.995,-251.851 311.985,-253.226C311.959,-256.651 310.722,-262.592 309.579,-264.781C309.331,-265.258 309.127,-265.891 309.126,-266.188C309.125,-266.486 309.008,-266.801 308.866,-266.889C308.724,-266.976 308.209,-267.836 307.722,-268.8C306.342,-271.527 302.784,-275.692 300.143,-277.669C294.92,-281.582 288.564,-283.95 282.404,-284.278C280.193,-284.396 279.031,-284.6 278.644,-284.938C277.936,-285.556 277.878,-287.958 278.559,-288.523C278.82,-288.739 280.08,-289.037 281.359,-289.184C287.481,-289.89 291.133,-290.756 293.975,-292.178C294.475,-292.428 295.244,-292.799 295.684,-293.002C299.318,-294.675 304.543,-299.251 306.47,-302.447C307.737,-304.549 309.124,-307.155 309.124,-307.434C309.124,-307.613 309.346,-308.188 309.617,-308.711C310.601,-310.615 311.742,-315.854 311.911,-319.247C312.03,-321.623 312.223,-322.771 312.571,-323.167C313.127,-323.8 313.992,-323.885 314.905,-323.396C315.512,-323.072 315.524,-322.325 315.524,-286.66C315.524,-258.772 315.434,-250.165 315.14,-249.871C314.515,-249.246 312.715,-249.397 312.336,-250.106L312.335,-250.106Z" style="fill:rgb(9,9,9);fill-rule:nonzero;"/>
                    <g transform="matrix(1,0,0,1,-5.6848,-539.81)">
                        <path d="M201.19,231.59L207.765,235.699L103.905,392.029L98.093,388.078L201.19,231.59Z" style="fill:rgb(9,9,9);"/>
                        <path d="M208.87,257.32L212.938,260.032L178.755,311.196L175.339,308.521L208.87,257.32Z" style="fill:rgb(9,9,9);"/>
                        <path d="M91.121,399.12L96.584,402.955L89.378,413.183L84.031,409.348L91.121,399.12Z" style="fill:rgb(9,9,9);"/>
                    </g>
                </g>
                <g transform="matrix(1.09311,0,0,1.09311,-733.797,535.38)">
                    <path d="M707.524,-7.098C707.524,-8.501 707.569,-8.568 708.884,-9.127C709.632,-9.444 710.748,-9.802 711.364,-9.921C713.63,-10.359 721.34,-13.662 723.993,-15.331C724.339,-15.548 725.635,-16.368 726.873,-17.152C728.111,-17.936 730.713,-20.168 732.654,-22.112C735.772,-25.234 736.361,-26.006 737.694,-28.722C738.524,-30.413 739.344,-32.501 739.515,-33.362C739.687,-34.222 740.029,-35.574 740.275,-36.366C740.522,-37.158 740.829,-38.994 740.957,-40.446C741.243,-43.687 740.935,-43.827 738.618,-41.51C736.494,-39.386 733.354,-37.861 729.764,-37.208C728.18,-36.921 726.289,-36.685 725.563,-36.686C723.82,-36.687 717.351,-37.821 716.068,-38.35C708.032,-41.665 702.748,-47.488 700.005,-56.053C699.147,-58.731 699.084,-59.286 699.074,-64.207C699.064,-68.941 699.141,-69.718 699.824,-71.727C701.587,-76.921 703.902,-80.728 707.172,-83.812C709.336,-85.854 712.563,-88.206 713.198,-88.206C713.378,-88.206 713.697,-88.413 713.907,-88.666C714.117,-88.918 714.746,-89.224 715.306,-89.344C715.866,-89.465 716.756,-89.786 717.284,-90.057C718.607,-90.738 724.19,-91.715 726.793,-91.721C729.292,-91.727 734.634,-90.758 736.484,-89.962C742.532,-87.361 746.077,-84.755 749.701,-80.248C753.218,-75.875 755.463,-71.249 756.865,-65.486C757.92,-61.148 757.918,-53.625 756.86,-49.006C756.025,-45.362 755.1,-42.495 754.214,-40.803C753.878,-40.163 753.604,-39.497 753.604,-39.324C753.604,-39.151 752.863,-37.658 751.957,-36.008C750.022,-32.484 746.609,-27.828 743.684,-24.723C741.228,-22.115 733.325,-15.566 732.635,-15.566C732.519,-15.566 731.969,-15.243 731.414,-14.847C730.218,-13.995 729.587,-13.645 725.684,-11.667C724.056,-10.842 722.148,-9.957 721.444,-9.7C720.74,-9.443 718.962,-8.793 717.492,-8.256C716.023,-7.718 714.043,-7.117 713.092,-6.92C711.975,-6.688 711.364,-6.4 711.364,-6.104C711.364,-5.758 710.895,-5.647 709.444,-5.647L707.524,-5.647L707.524,-7.098ZM732.004,-40.252C737.108,-42.208 740.101,-45.747 741.437,-51.407C742.004,-53.809 742.08,-55.237 742.082,-63.631C742.085,-74.496 741.605,-78.317 739.771,-82.059C738.44,-84.773 735.805,-87.199 733.09,-88.209C729.564,-89.521 724.538,-89.476 720.804,-88.099C719.474,-87.608 715.844,-84.587 715.844,-83.97C715.844,-83.776 715.643,-83.39 715.397,-83.113C715.152,-82.835 714.546,-81.383 714.052,-79.887L713.154,-77.167L713.139,-63.727L713.124,-50.287L714.075,-47.567C714.915,-45.166 715.271,-44.603 717.118,-42.767C719.188,-40.71 720,-40.297 723.684,-39.43C725.274,-39.055 730.135,-39.536 732.004,-40.252L732.004,-40.252ZM774.66,-6.927C774.147,-8.48 774.59,-9.807 775.621,-9.807C776.431,-9.807 781.085,-11.259 782.82,-12.052C783.524,-12.374 784.46,-12.738 784.9,-12.86C785.34,-12.982 785.916,-13.264 786.18,-13.487C786.444,-13.709 787.02,-14 787.46,-14.134C788.151,-14.343 789.68,-15.163 792.1,-16.621C798.149,-20.266 803.204,-25.618 805.309,-30.607C806.607,-33.685 808.127,-40.198 808.238,-43.167C808.272,-44.053 807.102,-43.837 806.381,-42.825C805.372,-41.408 802.23,-39.435 799.462,-38.479C797.203,-37.698 796.476,-37.604 792.711,-37.604C787.901,-37.604 786.838,-37.745 783.939,-38.766C780.156,-40.098 777.38,-41.76 773.962,-44.74C771.554,-46.839 768.513,-52.027 766.959,-56.687C766.331,-58.572 766.193,-59.75 766.088,-64.121C765.977,-68.793 766.038,-69.566 766.689,-71.801C767.342,-74.042 768.339,-76.36 770.029,-79.567C770.833,-81.092 776.757,-87.007 778.339,-87.864C779.043,-88.246 779.979,-88.755 780.419,-88.996C784.589,-91.282 788.232,-92.151 793.699,-92.166C797.703,-92.177 798.497,-92.083 801.16,-91.282C812.38,-87.912 820.27,-79.366 823.666,-66.908C824.215,-64.897 824.388,-63.198 824.496,-58.767C824.628,-53.395 824.594,-53.004 823.67,-49.167C822.382,-43.823 821.908,-42.519 819.453,-37.561C816.81,-32.222 810.756,-24.928 805.096,-20.262C802.661,-18.254 797.752,-14.852 795.939,-13.915C790.066,-10.88 788.236,-10.102 782.179,-8.062C780.441,-7.477 776.772,-6.607 776.04,-6.607C775.984,-6.607 775.939,-6.391 775.939,-6.127C775.939,-5.146 775.067,-5.691 774.659,-6.928L774.66,-6.927ZM796.831,-40.344C799.823,-40.916 802.099,-42.126 804.283,-44.304C806.333,-46.349 807.361,-48.115 808.286,-51.181C808.901,-53.219 809,-54.456 809.133,-61.807C809.392,-76.019 808.346,-81.633 804.663,-85.818C802.864,-87.862 800.438,-89.003 796.85,-89.491C793.398,-89.961 789.391,-89.537 787.299,-88.48C784.978,-87.306 781.953,-83.855 781.512,-81.876C781.406,-81.398 781.08,-80.359 780.789,-79.567C780.327,-78.311 780.259,-76.378 780.259,-64.367C780.259,-51.126 780.286,-50.528 780.951,-48.505C782.486,-43.842 785.251,-41.246 789.606,-40.38C792.496,-39.805 793.975,-39.798 796.831,-40.344L796.831,-40.344Z" style="fill:rgb(9,9,9);fill-rule:nonzero;"/>
                </g>
            </g>
        </g>
    </g>
</svg>
