<?xml version="1.0" encoding="UTF-8" standalone="no"?>
<!DOCTYPE svg PUBLIC "-//W3C//DTD SVG 1.1//EN" "http://www.w3.org/Graphics/SVG/1.1/DTD/svg11.dtd">
<svg width="100%" height="100%" viewBox="0 0 352 352" version="1.1" xmlns="http://www.w3.org/2000/svg" xmlns:xlink="http://www.w3.org/1999/xlink" xml:space="preserve" xmlns:serif="http://www.serif.com/" style="fill-rule:evenodd;clip-rule:evenodd;stroke-linejoin:round;stroke-miterlimit:2;">
    <g transform="matrix(2.66667,0,0,2.66667,0,0)">
        <g id="Artboard1" transform="matrix(1,0,0,1,-82,-5)">
            <rect x="82" y="5" width="132" height="132" style="fill:none;"/>
            <g transform="matrix(0.1,0,0,-0.1,0,168)">
                <g transform="matrix(1,0,0,1,-12.6952,-70.2602)">
                    <path d="M1199,1518C1198,1511 1198,1496 1199,1485C1200,1471 1189,1459 1165,1445C1089,1405 1057,1347 970,1095C875,816 877,730 981,636C1039,584 1098,561 1195,554C1277,548 1318,558 1337,587C1351,607 1348,613 1290,675C1256,712 1217,766 1203,796C1179,849 1179,852 1196,865C1207,873 1222,879 1230,879C1238,879 1235,875 1223,870C1200,861 1200,861 1238,801C1265,756 1281,740 1298,740C1310,740 1320,736 1320,731C1320,726 1343,722 1370,722L1420,722L1420,793L1355,788C1301,783 1288,785 1281,799C1273,814 1290,815 1477,812C1673,809 1740,816 1740,840C1740,844 1754,850 1770,852C1797,856 1800,854 1794,836C1779,786 1744,732 1694,680C1614,596 1623,562 1728,553C1846,542 1977,590 2035,667C2083,729 2095,796 2076,887C2058,977 1947,1291 1915,1345C1891,1387 1818,1460 1801,1460C1795,1460 1790,1475 1788,1493C1785,1523 1782,1525 1743,1528C1703,1531 1700,1529 1700,1506C1700,1492 1698,1480 1695,1480C1692,1480 1661,1489 1627,1501C1546,1529 1409,1525 1338,1493L1291,1472L1288,1498C1285,1522 1280,1525 1243,1528C1213,1530 1200,1527 1199,1518ZM1628,1462C1797,1398 1900,1209 1856,1043C1840,982 1793,893 1773,886C1762,881 1762,884 1771,902C1810,975 1685,1210 1608,1210C1585,1210 1578,1201 1552,1138C1535,1098 1518,1053 1515,1038C1511,1022 1505,1010 1501,1010C1491,1010 1447,1077 1415,1143C1399,1177 1379,1206 1372,1208C1350,1215 1270,1122 1238,1054C1214,1003 1209,979 1212,940C1214,911 1211,891 1206,893C1200,895 1180,927 1161,965C1128,1027 1125,1039 1125,1119C1125,1195 1129,1213 1157,1272C1242,1451 1442,1532 1628,1462ZM1756,1481C1752,1476 1755,1470 1762,1468C1768,1466 1775,1453 1777,1439C1779,1423 1777,1419 1771,1428C1767,1436 1761,1440 1759,1439C1757,1437 1744,1443 1730,1453C1708,1468 1708,1470 1725,1470C1742,1470 1742,1472 1730,1480C1718,1488 1720,1490 1738,1490C1751,1490 1759,1486 1756,1481ZM1270,1464C1270,1453 1265,1450 1254,1454C1243,1458 1239,1456 1243,1446C1246,1438 1241,1430 1230,1427C1218,1424 1213,1427 1215,1439C1217,1448 1219,1461 1219,1468C1220,1487 1270,1483 1270,1464ZM1181,1379C1148,1348 1103,1251 1090,1182C1076,1112 1088,1023 1120,960C1129,941 1142,897 1148,863C1162,782 1191,728 1258,658C1324,589 1319,584 1193,593C1012,606 919,704 940,860C950,930 1063,1260 1098,1320C1112,1345 1140,1380 1159,1398C1188,1426 1196,1429 1198,1415C1200,1406 1192,1389 1181,1379ZM1832,1393C1882,1337 1902,1297 1960,1133C2027,943 2050,860 2050,814C2050,728 1972,633 1879,606C1818,587 1680,584 1680,601C1680,607 1703,635 1730,663C1786,721 1826,795 1836,861C1839,885 1854,930 1868,960C1925,1085 1898,1285 1811,1377C1790,1400 1784,1420 1798,1420C1803,1420 1818,1408 1832,1393ZM1689,1085C1744,1006 1757,915 1718,873C1697,850 1693,850 1499,850C1390,850 1294,853 1285,856C1218,882 1243,1028 1333,1133L1367,1172L1385,1123C1407,1065 1457,995 1487,981C1516,968 1532,983 1555,1045C1565,1073 1582,1115 1592,1140L1611,1184L1636,1155C1649,1138 1673,1107 1689,1085Z" style="fill-rule:nonzero;"/>
                </g>
                <g transform="matrix(1,0,0,1,-12.6952,-70.2602)">
                    <path d="M1334,1045C1330,1037 1333,1023 1340,1015C1349,1005 1349,1000 1341,1000C1321,1000 1329,962 1352,954C1390,942 1413,996 1390,1041C1377,1064 1342,1066 1334,1045Z" style="fill-rule:nonzero;"/>
                </g>
                <g transform="matrix(1,0,0,1,-12.6952,-70.2602)">
                    <path d="M1583,1044C1580,1035 1583,1024 1590,1020C1601,1013 1601,1009 1591,996C1580,983 1580,977 1590,965C1616,933 1650,960 1650,1012C1650,1055 1597,1080 1583,1044Z" style="fill-rule:nonzero;"/>
                </g>
            </g>
        </g>
    </g>
</svg>
