<?xml version="1.0" encoding="UTF-8" standalone="no"?>
<!DOCTYPE svg PUBLIC "-//W3C//DTD SVG 1.1//EN" "http://www.w3.org/Graphics/SVG/1.1/DTD/svg11.dtd">
<svg width="100%" height="100%" viewBox="0 0 1366 1366" version="1.1" xmlns="http://www.w3.org/2000/svg" xmlns:xlink="http://www.w3.org/1999/xlink" xml:space="preserve" xmlns:serif="http://www.serif.com/" style="fill-rule:evenodd;clip-rule:evenodd;stroke-linejoin:round;stroke-miterlimit:2;">
    <g transform="matrix(2.66667,0,0,2.66667,0,0)">
        <path d="M391.2,103.5L352.5,103.5L352.5,213.2L391.1,213.2L391.2,103.5ZM285,103L246.4,103L246.4,212.8L285,212.8L285,103ZM120.8,0L24.3,91.4L24.3,420.6L140.1,420.6L140.1,512L236.6,420.6L313.9,420.6L487.7,256L487.7,0L120.8,0ZM449.1,237.8L371.9,310.9L294.6,310.9L227,374.9L227,310.9L140.1,310.9L140.1,36.6L449.1,36.6L449.1,237.8Z" style="fill-rule:nonzero;"/>
    </g>
</svg>
